<svg xmlns="http://www.w3.org/2000/svg" viewBox="0 0 67.79 111.86"><defs><style>.cls-1,.cls-2,.cls-3{fill:#fff;stroke-linecap:round;stroke-linejoin:round;}.cls-1{stroke:#626266;}.cls-1,.cls-3{stroke-width:4.16px;}.cls-2,.cls-3{stroke:#3fa9f5;}.cls-2{stroke-width:3px;}</style></defs><g id="Layer_2" data-name="Layer 2"><g id="Layer_1-2" data-name="Layer 1"><rect class="cls-1" x="2.08" y="2.08" width="63.62" height="107.7" rx="6.6"/><rect class="cls-1" x="9.96" y="10.08" width="47.87" height="78.88" rx="4"/><circle class="cls-1" cx="33.89" cy="99.5" r="4.74"/><path class="cls-2" d="M49.64,72.65l-3.5,1.79a2.5,2.5,0,0,1-2.52-.1l-2.57-1.53a3.34,3.34,0,0,0-3.4,0l-2.17,1.26a3.63,3.63,0,0,1-3.58,0l-2.24-1.23a3.33,3.33,0,0,0-3.1,0l-3.15,1.61a2.52,2.52,0,0,1-2.53-.1L18,72.6"/><path class="cls-2" d="M49.64,65.07l-3.5,1.79a2.5,2.5,0,0,1-2.52-.09l-2.57-1.53a3.34,3.34,0,0,0-3.4,0l-2.17,1.26a3.63,3.63,0,0,1-3.58,0L29.66,65.3a3.3,3.3,0,0,0-3.1,0l-3.15,1.61a2.52,2.52,0,0,1-2.53-.09L18,65"/><path class="cls-3" d="M44.56,43.5A10.76,10.76,0,0,1,23,43.5c0-6,10.76-20.77,10.76-20.77S44.56,37.55,44.56,43.5Z"/></g></g></svg>