<svg xmlns="http://www.w3.org/2000/svg" viewBox="0 0 136.49 69.84"><defs><style>.cls-1{fill:#626266;}.cls-2{fill:#ff005a;}</style></defs><g id="Layer_2" data-name="Layer 2"><g id="Layer_1-2" data-name="Layer 1"><path class="cls-1" d="M135.21,34.73l-1.28-2L120.37,11.82l-3.8-5.88A13,13,0,0,0,105.65,0H3A3,3,0,0,0,3,6H105.65a7,7,0,0,1,5.88,3.2l.81,1.25h-7.71A4.66,4.66,0,0,0,100,15.1V29.39a8,8,0,0,0,8,8h21.81l.4.61a1.89,1.89,0,0,1,.31,1.07v6.71a7,7,0,0,1-7,7h-3.66a14,14,0,0,0-27.45,0h-31a14,14,0,0,0-27.45,0H31.1a7,7,0,0,1-7-7V22.06a3,3,0,1,0-6,0V45.78a13,13,0,0,0,13,13h2.78a14,14,0,0,0,27.45,0H92.38a14,14,0,0,0,27.45,0h3.66a13,13,0,0,0,13-13V39.07A7.88,7.88,0,0,0,135.21,34.73ZM108,31.39a2,2,0,0,1-2-2V16.45h10.24l9.68,14.94Zm6.19,24.39a7.9,7.9,0,0,1-.58,3,8.05,8.05,0,0,1-15,0,8,8,0,0,1,0-6,8.05,8.05,0,0,1,15,0A7.9,7.9,0,0,1,114.16,55.78Zm-58.5,0a7.9,7.9,0,0,1-.58,3,8.05,8.05,0,0,1-14.95,0,8,8,0,0,1,0-6,8.05,8.05,0,0,1,14.95,0A7.9,7.9,0,0,1,55.66,55.78Z"/><path class="cls-2" d="M79.62,32.39a3,3,0,0,0,0-6H34.27a3,3,0,0,0,0,6Z"/><path class="cls-2" d="M24.1,12.94a3,3,0,0,0-3-3H8.48a3,3,0,0,0,0,6H21.1A3,3,0,0,0,24.1,12.94Z"/></g></g></svg>